#!OML:ASF F:\VICON\USERDATA\INSTALL\rory3\rory3.ASF
:FULLY-SPECIFIED
:DEGREES
71
root 0.6718705107158506 17.383702844644112 34.49897222751687 1.8068133541236193 4.524221921964731 0.7558991675276809
lfemur -9.622116992233696 -5.261799042822549 -26.963327267252133
ltibia 40.77310727013372
lfoot -16.38291627943869 1.3769161060081245
ltoes -8.834919471775983
rfemur -28.68148242504744 -6.097486499373282 19.38311165545133
rtibia 107.86707155544408
rfoot 13.713650796180495 -3.344671648212903
rtoes 15.102507154200728
lowerback nan 0.2816395009964142 -1.7392961826198454
upperback -0.1589850218221821 0.16778423455932745 -0.7726343122384784
thorax -9.13371489355991 0.1541656920578109 1.0270699680876614
lowerneck -20.198388878585714 -4.409185510706166 -2.417631025834841
upperneck 7.739618743474439 -6.22216257379975 5.447586027618384
head 5.7621300625234335 -2.6329995918854316 1.4701357789307452
lclavicle -1.131448627644537e-15 -2.0157566957506793e-15
lhumerus -41.80114498413339 -10.592364553166277 90.88390451323947
lradius 114.4598466220525
lwrist 32.482068617396806
lhand -25.175068819325546 2.8563122825053133
lfingers nan
lthumb 1.7621349784992464 32.67230825606672
rclavicle -9.493186112527489e-16 -1.2074391899323866e-15
rhumerus -48.93708910207568 13.053663618693298 -100.09238924989796
rradius 116.39407325974572
rwrist -21.635448005164466
rhand -17.725813422558065 nan
rfingers nan
rthumb 7.613143093029346 10.497142430017194
72
root 0.7189719359414724 17.418859777644286 34.529551649599554 2.173009502162598 4.10258021599458 0.7769164461601741
lfemur -6.344191747760869 -5.470479961783152 -27.054012513325866
ltibia 39.234806328140735
lfoot -15.596008490818146 2.016346040037133
ltoes -12.514471496299965
rfemur -33.17547985951746 -5.95279519772274 19.8427349219412
rtibia 106.71007880813778
rfoot 11.908459085943814 -2.325998396812897
rtoes 10.527898662661169
lowerback nan -0.10628861260974831 -1.8768765362759487
upperback -0.2819038314201284 -0.3404524622662932 -0.5295424964356168
thorax -9.08952369949644 -0.06755348480339562 1.4329470406001907
lowerneck -20.269168602853945 -4.122970028777557 -2.421479812453802
upperneck 7.78623366629783 -5.795118796491441 5.404146332410019
head 5.801193914362825 -2.418129932377249 1.4898116212205557
lclavicle -6.081841835295228e-16 -1.5302978443021411e-15
lhumerus -40.28067602323351 -10.793785719063898 90.43968495284966
lradius 115.41474810030667
lwrist 32.22558655160154
lhand -25.10544112036096 2.9734222052893284
lfingers nan
lthumb 1.6847328871580232 32.603679193512406
rclavicle -3.420508456345427e-16 -7.886243443103314e-16
rhumerus -49.83017572854139 12.277005024514661 -100.34854383392339
rradius 116.15725933066769
rwrist -21.860385271561217
rhand -17.713403503618643 nan
rfingers nan
rthumb 7.397436766013013 10.250332285331673
73
root 0.7536652741364628 17.521801940971816 35.53146303666338 2.5606705803386633 3.3885328388848044 0.7035525008987222
lfemur -3.0541668700246607 -5.316366869901566 -27.007197147902964
ltibia 37.44851468629841
lfoot -12.842577422138486 1.6831181102387731
ltoes -19.927323478004613
rfemur -37.13514765785762 -5.213350534015106 20.571224905193716
rtibia 103.61045417736925
rfoot 10.075134923058458 -1.7852093357214676
rtoes 8.197294995456396
lowerback nan -0.48534434421168615 -1.969356568993898
upperback -0.44907986404256567 -0.8029638575642801 -0.1727483813709625
thorax -8.970975176898019 -0.26827462526031653 1.8431436383367705
lowerneck -20.22168497004286 -3.809751921912683 -2.443565618197646
upperneck 7.991362577048403 -5.326651081655663 5.324378137920408
head 5.888337782602736 -2.188981681375412 1.5039916047496436
lclavicle -6.562451695113364e-16 -1.9630428524367345e-15
lhumerus -39.353237186303076 -10.835940620163857 90.01342742968865
lradius 116.61439715923363
lwrist 32.05983635496001
lhand -25.076752963104816 3.1356119933161093
lfingers nan
lthumb 1.7433096224209872 32.92398582490784
rclavicle 1.7056004736384472e-16 -9.85194998466208e-16
rhumerus -50.77800167847323 11.556463382743026 -100.54398941555425
rradius 116.2137882072577
rwrist -22.139003915427963
rhand -17.651800952833725 nan
rfingers nan
rthumb 7.512441507417246 10.524685327452932
74
root 0.7964699146182649 17.635234013189244 35.81345207384983 2.7974977007091586 2.4575405033515367 0.5576385238023058
lfemur 0.17112093257011196 -4.885504437042138 -26.844343801804772
ltibia 35.33480522784441
lfoot -8.035280511162917 -0.1546554463695866
ltoes -28.323634923506688
rfemur -39.91619868865123 -4.0729446687011155 21.467343965077077
rtibia 98.52781936083534
rfoot 8.222396541728049 -1.7594392944420134
rtoes 7.495681263597952
lowerback nan -0.7967445370099934 -2.0040328194123407
upperback -0.6791092884824386 -1.1661175420484096 0.25197693677398125
thorax -8.844245167699839 -0.43008733338412786 2.2131482910154046
lowerneck -20.088372424401463 -3.5084733921982005 -2.4947956215642764
upperneck 8.349527636337752 -4.862305905309591 5.214759145612046
head 6.014037063229108 -1.9675121740693018 1.514745635767588
lclavicle -2.3669327681403372e-15 -4.564638273144765e-15
lhumerus -38.93136574825383 -10.829383411633389 89.63876866882525
lradius 117.84847886338494
lwrist 32.18189859592802
lhand -25.132869404391506 3.242341843144593
lfingers nan
lthumb 1.5989335858181928 32.98452281214771
rclavicle -1.8299924500833135e-15 -3.749403178950708e-15
rhumerus -51.76727656551602 10.94982560835021 -100.66879276454547
rradius 116.53643884137632
rwrist -22.42500984505874
rhand -17.64518825240668 nan
rfingers nan
rthumb 7.307580741406278 10.377869308895217
75
root 0.8356567458509023 17.786437901653024 36.50372632555323 3.0997917547694396 1.051891051325717 0.2600366869033155
lfemur 3.2576994495171725 -4.115517460894734 -26.43954347427169
ltibia 32.785213170324894
lfoot -1.374375844765538 -3.9760832563431503
ltoes -32.615784245410126
rfemur -41.860148895860306 -2.3514634711055282 22.485446530986707
rtibia 91.88295699732862
rfoot 6.453619555532181 -2.2203152133144055
rtoes 6.527878043091399
lowerback nan -1.0087215783345695 -1.9255483030220621
upperback -0.9415417887337483 -1.3772345059586613 0.7337172764975867
thorax -8.733605233079114 -0.529120675770724 2.5557115283388017
lowerneck -19.732445361258453 -3.1768460086378463 -2.562624728714739
upperneck 8.801153018863683 -4.339960176203931 5.068510742364261
head 6.136657183018728 -1.7251368596093848 1.52814552170804
lclavicle -3.961348728068108e-15 -6.9371455074960525e-15
lhumerus -38.7772205145949 -10.827009084291069 89.39443533081668
lradius 118.92374540728878
lwrist 32.609740352790695
lhand -25.073922774540844 3.4324529561685218
lfingers nan
lthumb 1.516663020158858 33.249072402734754
rclavicle -4.2087597572878775e-15 -6.9231658892185654e-15
rhumerus -52.76162994431288 10.464635829426156 -100.72952173589752
rradius 117.04748446665963
rwrist -22.6907234382066
rhand -17.631373179107065 nan
rfingers nan
rthumb 7.477577094332146 10.74549243482907
